<?xml version="1.0" encoding="utf-8"?>
<!-- Generator: Adobe Illustrator 16.0.0, SVG Export Plug-In . SVG Version: 6.00 Build 0)  -->
<!DOCTYPE svg PUBLIC "-//W3C//DTD SVG 1.1//EN" "http://www.w3.org/Graphics/SVG/1.1/DTD/svg11.dtd">
<svg version="1.1" id="Layer_1" xmlns:svg="http://www.w3.org/2000/svg"
	 xmlns="http://www.w3.org/2000/svg" xmlns:xlink="http://www.w3.org/1999/xlink" x="0px" y="0px" width="112px" height="163px"
	 viewBox="0 0 112 163" enable-background="new 0 0 112 163" xml:space="preserve">
<path id="path3" fill="#D8860F" d="M57.309,28.614c12.105,0,19.902,12.699,20.064,28.446H37.245
	C37.408,41.312,45.204,28.614,57.309,28.614z M57.309,12.891c-18.86,0-34.144,19.958-34.144,44.575l0.008,0.618
	c-6.415,2.349-10.983,8.487-10.983,15.69v39.209c0,17.454,20.202,31.608,45.119,31.608c24.918,0,45.12-14.154,45.12-31.608V73.774
	c0-7.203-4.569-13.341-10.983-15.69l0.008-0.618C91.453,32.849,76.17,12.891,57.309,12.891z M44.505,94.139
	c0-7.049,5.731-12.764,12.804-12.764c7.073,0,12.805,5.715,12.805,12.764c0,4.512-2.35,8.479-5.895,10.748v11.747h-13.82v-11.747
	C46.854,102.618,44.505,98.65,44.505,94.139z"/>
</svg>
